# xmcd CD database file
#
# Track frame offsets:
#	150
#	22526
#	46800
#	69155
#
# Disc length: 1243 seconds
#
# Revision: 0
# Processed by: cddbd v1.5.1PL0 Copyright (c) Steve Scherf et al.
# Submitted via: CDex 1.51
#
DISCID=1e04d904
DTITLE=Memories Off〜それから〜 feat. 村田あゆみ - Shining Star
DYEAR=2004
DGENRE=Game
TTITLE0=村田あゆみ - Shining Star(to the memories)
TTITLE1=村田あゆみ - ヒトシズクアイ
TTITLE2=/ Shining Star(to the memories) Karaoke
TTITLE3=/ ヒトシズクアイ Karaoke
EXTD=YEAR: 20040722
EXTT0=
EXTT1=
EXTT2=
EXTT3=
PLAYORDER=
